<svg width="512" height="512" viewBox="0 0 512 512" fill="none" xmlns="http://www.w3.org/2000/svg">
<rect width="512" height="512" rx="100" fill="#313D65"/>
<path d="M185.961 140.316L193.754 157.639C196.019 162.905 198.283 167.907 200.6 173.068C200.796 173.556 201.025 174.031 201.284 174.489C201.505 174.96 201.816 175.383 202.2 175.733C202.584 176.084 203.034 176.355 203.523 176.531C204.012 176.707 204.532 176.785 205.051 176.76C205.57 176.735 206.08 176.607 206.55 176.385C207.072 176.194 207.546 175.893 207.942 175.503C208.339 175.114 208.647 174.644 208.846 174.125C209.046 173.606 209.132 173.051 209.099 172.496C209.066 171.942 208.915 171.4 208.656 170.909L198.757 149.32L192.859 135.998C192.407 135.11 192.152 134.136 192.112 133.14C192.073 132.145 192.249 131.153 192.629 130.232C193.01 129.312 193.585 128.484 194.315 127.807C195.046 127.13 195.914 126.619 196.861 126.309H197.546C207.603 123.519 217.765 120.886 227.981 118.253C229.006 117.966 230.083 117.923 231.128 118.125C232.173 118.328 233.156 118.772 233.999 119.421C234.843 120.07 235.523 120.907 235.987 121.865C236.45 122.823 236.684 123.876 236.669 124.94C237.564 137.42 238.407 149.846 239.302 162.326C239.302 165.433 241.197 167.118 243.619 166.96C246.042 166.802 247.463 164.853 247.253 161.694L244.883 128.784C244.883 127.784 244.883 126.783 244.883 125.414C246.831 125.888 248.622 126.204 250.149 126.783C261.481 129.971 271.814 135.996 280.171 144.288C288.528 152.58 294.632 162.866 297.908 174.173C298.539 176.174 299.224 176.964 301.436 177.069C303.617 177.242 305.675 178.156 307.265 179.66C308.855 181.164 309.883 183.167 310.176 185.336C310.435 187.423 310.03 189.538 309.019 191.381C308.007 193.224 306.441 194.702 304.542 195.604C297.434 198.553 290.378 201.712 283.059 204.029C266.525 209.295 249.938 214.56 233.194 218.826C220.451 222.143 207.392 224.565 194.439 226.882C185.593 228.409 176.589 229.304 167.637 230.146C166.212 230.41 164.745 230.356 163.343 229.987C161.941 229.619 160.638 228.945 159.526 228.014C158.415 227.084 157.522 225.919 156.913 224.604C156.303 223.289 155.992 221.855 156 220.405C156.018 218.767 156.477 217.163 157.33 215.764C158.182 214.365 159.397 213.221 160.845 212.454C161.153 212.327 161.433 212.141 161.67 211.905C161.906 211.669 162.093 211.389 162.22 211.081C162.347 210.772 162.412 210.442 162.411 210.108C162.41 209.774 162.343 209.444 162.214 209.137C159.5 197.087 160.061 184.531 163.839 172.772C167.616 161.012 174.473 150.478 183.697 142.264C184.382 141.632 185.119 141.106 185.961 140.316Z" fill="#F9B102"/>
<path d="M350.242 359.943L349.715 359.416C349.288 358.899 348.83 358.406 348.346 357.942C346.819 356.573 345.187 355.203 343.397 353.887C337.985 349.653 332.143 345.999 325.967 342.987C335.204 334.275 342.63 323.825 347.82 312.236C355.729 294.403 357.971 274.57 354.244 255.421C350.043 234.566 338.908 215.748 322.65 202.028C321.513 200.895 319.999 200.22 318.396 200.133C316.794 200.045 315.215 200.551 313.962 201.554C303.923 208.427 293.084 214.05 281.684 218.298C281.422 218.405 281.199 218.587 281.041 218.822C280.883 219.056 280.799 219.332 280.799 219.615C280.799 219.897 280.883 220.173 281.041 220.408C281.199 220.642 281.422 220.825 281.684 220.931C288.419 224.385 294.412 229.126 299.324 234.885C309.151 244.429 315.081 257.284 315.963 270.954C316.575 278.704 315.478 286.494 312.748 293.773C310.019 301.052 305.723 307.643 300.166 313.079C295.089 318.197 289.029 322.234 282.351 324.949C275.672 327.664 268.514 328.999 261.306 328.876C253.526 328.98 245.817 327.38 238.722 324.187C231.626 320.994 225.316 316.286 220.235 310.393C210.44 299.022 205.538 284.24 206.597 269.269C206.898 258.584 210.483 248.252 216.865 239.677C217.041 239.461 217.15 239.199 217.178 238.922C217.206 238.645 217.153 238.365 217.024 238.119C216.895 237.872 216.696 237.669 216.452 237.534C216.209 237.399 215.931 237.338 215.654 237.36C204.543 238.255 204.649 238.413 181.638 241.151C178.759 241.411 176.027 242.536 173.8 244.378C171.572 246.22 169.954 248.693 169.159 251.472C165.101 267.975 165.556 285.265 170.475 301.533C175.394 317.8 184.597 332.445 197.119 343.935C214.441 360.295 237.483 369.217 261.306 368.789C276.938 368.458 292.451 371.568 306.748 377.898C310.567 379.656 314.2 381.79 317.595 384.269C318.587 384.886 319.521 385.591 320.386 386.376L321.176 387.008C323 389.084 325.254 390.739 327.782 391.857C330.31 392.975 333.05 393.531 335.814 393.484C340.85 393.536 345.713 391.651 349.399 388.219C353.184 384.678 355.447 379.807 355.712 374.631C355.977 369.455 354.224 364.378 350.821 360.469L350.242 359.943Z" fill="white"/>
</svg>
