<svg width="145" height="30" viewBox="0 0 145 30" fill="none" xmlns="http://www.w3.org/2000/svg">
<g clip-path="url(#clip0_7010_969)">
<path d="M142.878 22.4934C143.158 22.4898 143.435 22.5429 143.694 22.6496C143.952 22.7562 144.186 22.9142 144.382 23.1139C144.579 23.3106 144.735 23.5441 144.841 23.8012C144.948 24.0582 145.003 24.3337 145.003 24.6119C145.003 24.8902 144.948 25.1656 144.841 25.4227C144.735 25.6797 144.579 25.9133 144.382 26.11C144.186 26.3097 143.952 26.4676 143.694 26.5743C143.435 26.6809 143.158 26.7341 142.878 26.7305H129.686C129.289 26.7271 128.902 26.6108 128.568 26.3951C128.226 26.1837 127.955 25.874 127.791 25.5063C127.615 25.144 127.548 24.7377 127.601 24.338C127.656 23.9391 127.825 23.5645 128.088 23.2592L138.362 10.8442H129.686C129.406 10.8492 129.127 10.7967 128.867 10.69C128.608 10.5833 128.373 10.4246 128.177 10.2237C127.783 9.82784 127.562 9.29228 127.562 8.73404C127.562 8.1758 127.783 7.64024 128.177 7.24435C128.371 7.0398 128.605 6.87796 128.865 6.76919C129.125 6.66042 129.405 6.60712 129.686 6.6127H142.878C143.275 6.61609 143.663 6.73243 143.996 6.94809C144.331 7.16557 144.601 7.46858 144.779 7.82569C144.947 8.19046 145.008 8.59598 144.952 8.99397C144.911 9.39511 144.747 9.77376 144.483 10.0784L134.158 22.4934H142.878Z" fill="#313D65"/>
<path d="M104.384 13.6784L110.829 7.26686C111.12 6.96524 111.495 6.75887 111.905 6.67503C112.315 6.59119 112.741 6.63383 113.127 6.79731C113.516 6.95683 113.85 7.22849 114.084 7.57782C114.319 7.92715 114.445 8.33839 114.446 8.75934V24.5953C114.447 25.0148 114.324 25.4252 114.091 25.7745C113.859 26.1237 113.528 26.3961 113.141 26.5572C112.753 26.7182 112.327 26.7607 111.915 26.6791C111.504 26.5975 111.126 26.3956 110.829 26.099C110.631 25.9028 110.474 25.6685 110.368 25.41C110.262 25.1516 110.21 24.8745 110.214 24.5953V13.8405L105.888 18.167C105.693 18.3675 105.459 18.5259 105.2 18.6327C104.942 18.7394 104.664 18.792 104.384 18.7875C104.106 18.7925 103.83 18.74 103.573 18.6332C103.316 18.5264 103.084 18.3677 102.892 18.167L98.5652 13.8405V24.5953C98.5652 25.1572 98.342 25.696 97.9447 26.0933C97.5474 26.4906 97.0085 26.7139 96.4467 26.7139C95.8848 26.7139 95.3459 26.4906 94.9486 26.0933C94.5513 25.696 94.3281 25.1572 94.3281 24.5953V8.73698C94.3263 8.31427 94.453 7.90099 94.6915 7.55194C94.864 7.29013 95.0932 7.07037 95.3619 6.90885C95.6307 6.74734 95.9323 6.64817 96.2444 6.61867C96.5566 6.58917 96.8714 6.63008 97.1657 6.73839C97.46 6.8467 97.7262 7.01965 97.9447 7.2445L104.384 13.6784Z" fill="#313D65"/>
<path d="M30.65 9.59797H41.4439C41.4787 9.59729 41.5129 9.58957 41.5446 9.57528C41.5763 9.56099 41.6048 9.54042 41.6283 9.51482C41.6518 9.48922 41.6699 9.45911 41.6814 9.42633C41.693 9.39354 41.6977 9.35876 41.6955 9.32407C41.6815 9.17347 41.6815 9.0219 41.6955 8.87129C41.6994 8.83599 41.6958 8.80025 41.685 8.76643C41.6741 8.73261 41.6562 8.70147 41.6325 8.67507C41.6087 8.64866 41.5796 8.62759 41.5471 8.61324C41.5146 8.59889 41.4795 8.59158 41.4439 8.5918H30.65C30.6169 8.5918 30.5842 8.59831 30.5537 8.61095C30.5232 8.62359 30.4955 8.64212 30.4721 8.66548C30.4488 8.68883 30.4302 8.71657 30.4176 8.74708C30.4049 8.7776 30.3984 8.81031 30.3984 8.84334V9.34643C30.3984 9.37946 30.4049 9.41217 30.4176 9.44269C30.4302 9.47321 30.4488 9.50094 30.4721 9.5243C30.4955 9.54766 30.5232 9.56619 30.5537 9.57883C30.5842 9.59147 30.6169 9.59797 30.65 9.59797Z" fill="#F9B102"/>
<path d="M49.7491 10.8609H61.7169C63.6175 10.8609 64.741 10.1678 64.6628 8.94364C64.5845 7.71946 63.651 7.13253 61.6778 7.14371L49.7491 7.21079C49.4864 7.21079 49.2852 7.38407 49.2852 7.57972V10.4864C49.2907 10.6821 49.492 10.8442 49.7491 10.8609Z" fill="#313D65"/>
<path d="M63.3056 20.2738C64.3453 19.6162 65.2042 18.7093 65.8043 17.6354C66.4358 16.5371 66.7655 15.2913 66.7601 14.0244C66.7241 12.7835 66.3512 11.5759 65.6813 10.5308C65.438 11.0284 65.0684 11.4535 64.6093 11.7635C64.1502 12.0735 63.6178 12.2575 63.0653 12.2971H62.1877C62.4259 12.851 62.5422 13.4496 62.5286 14.0523C62.5213 14.8936 62.1827 15.698 61.5863 16.2913C60.9899 16.8845 60.1837 17.2189 59.3424 17.2218H53.5234V12.7499C53.5265 12.6347 53.4844 12.5228 53.406 12.4382C53.3277 12.3536 53.2194 12.3029 53.1042 12.2971H49.7503C49.6332 12.2971 49.5209 12.3437 49.4381 12.4265C49.3552 12.5093 49.3087 12.6216 49.3087 12.7387V24.5947C49.3057 24.8743 49.3584 25.1517 49.4637 25.4107C49.569 25.6697 49.7247 25.9051 49.9219 26.1033C50.1191 26.3015 50.3537 26.4585 50.6122 26.5652C50.8706 26.6718 51.1477 26.726 51.4273 26.7245C51.7054 26.7295 51.9815 26.677 52.2383 26.5702C52.4952 26.4634 52.7272 26.3047 52.9197 26.104C53.1179 25.9068 53.2736 25.6712 53.3774 25.4117C53.4813 25.1522 53.5309 24.8742 53.5234 24.5947V21.4253H58.4704L63.1659 26.104C63.3591 26.3039 63.5912 26.4621 63.8479 26.5688C64.1046 26.6755 64.3804 26.7285 64.6584 26.7245C64.9375 26.7252 65.214 26.6708 65.4721 26.5643C65.7301 26.4578 65.9646 26.3014 66.162 26.104C66.3594 25.9066 66.5158 25.6721 66.6223 25.4141C66.7288 25.156 66.7832 24.8795 66.7825 24.6003C66.7865 24.3224 66.7335 24.0465 66.6268 23.7898C66.5201 23.5331 66.3619 23.301 66.162 23.1079L63.3056 20.2738Z" fill="#313D65"/>
<path d="M24.2535 8.57994H21.7045C21.6343 8.57252 21.5634 8.57993 21.4963 8.60168C21.4292 8.62344 21.3675 8.65907 21.315 8.70624C21.2626 8.75342 21.2207 8.8111 21.192 8.87552C21.1633 8.93995 21.1484 9.0097 21.1484 9.08023C21.1484 9.15077 21.1633 9.22051 21.192 9.28494C21.2207 9.34937 21.2626 9.40705 21.315 9.45422C21.3675 9.5014 21.4292 9.53702 21.4963 9.55878C21.5634 9.58054 21.6343 9.58795 21.7045 9.58052H24.2479C24.2821 9.58066 24.3161 9.57364 24.3475 9.55991C24.3789 9.54617 24.407 9.52603 24.4302 9.50077C24.4533 9.47551 24.471 9.44568 24.4819 9.41321C24.4929 9.38074 24.4969 9.34634 24.4938 9.31221C24.4798 9.15974 24.4798 9.00631 24.4938 8.85384C24.4977 8.81974 24.4944 8.7852 24.4842 8.75244C24.474 8.71969 24.457 8.68943 24.4343 8.66364C24.4117 8.63784 24.3839 8.61706 24.3527 8.60265C24.3216 8.58823 24.2878 8.5805 24.2535 8.57994Z" fill="#F9B102"/>
<path d="M42.1426 16.3611C42.1378 17.198 41.9683 18.0257 41.6436 18.797C41.319 19.5683 40.8456 20.2681 40.2505 20.8565C39.6554 21.4448 38.9502 21.9102 38.1752 22.226C37.4003 22.5419 36.5707 22.702 35.7339 22.6972C34.0438 22.6876 32.4268 22.007 31.2385 20.8051C30.0503 19.6032 29.3882 17.9785 29.3978 16.2885V8.26149C29.4015 8.05875 29.3648 7.8573 29.2898 7.66892C29.2147 7.48054 29.1029 7.30899 28.9608 7.16432C28.8188 7.01964 28.6493 6.90473 28.4623 6.8263C28.2753 6.74786 28.0745 6.70749 27.8718 6.70752H27.0668C26.6606 6.70752 26.2711 6.86889 25.9838 7.15612C25.6966 7.44335 25.5352 7.83292 25.5352 8.23913V16.2661C25.5299 17.6957 25.8225 19.1107 26.3943 20.4209C26.9661 21.7311 27.8047 22.9079 28.8565 23.8761C29.9083 24.8442 31.1503 25.5827 32.5033 26.0443C33.8563 26.5058 35.2906 26.6805 36.7149 26.557C42.0867 26.0651 46.0107 21.1963 46.0107 15.8078V12.7054C46.0093 12.5893 45.9621 12.4784 45.8794 12.3968C45.7968 12.3151 45.6853 12.2694 45.5692 12.2694H42.6289C42.5704 12.2687 42.5124 12.2795 42.4582 12.3014C42.404 12.3233 42.3546 12.3557 42.313 12.3967C42.2714 12.4378 42.2384 12.4868 42.2159 12.5407C42.1933 12.5946 42.1817 12.6525 42.1817 12.711L42.1426 16.3611Z" fill="#313D65"/>
<path d="M3.18063 2.34213L4.00792 4.18118C4.24828 4.74017 4.48865 5.2712 4.7346 5.819C4.75543 5.87088 4.7797 5.9213 4.80727 5.96993C4.83067 6.01992 4.86371 6.0648 4.9045 6.10199C4.94529 6.13918 4.99302 6.16795 5.04496 6.18665C5.0969 6.20534 5.15201 6.2136 5.20715 6.21094C5.26228 6.20829 5.31635 6.19477 5.36625 6.17116C5.42164 6.15087 5.47205 6.11896 5.51409 6.07758C5.55614 6.0362 5.58885 5.98631 5.61002 5.93125C5.6312 5.87619 5.64036 5.81724 5.63688 5.75835C5.63339 5.69946 5.61736 5.642 5.58984 5.58982L4.53895 3.29799L3.91289 1.88377C3.86488 1.78955 3.83783 1.68606 3.83362 1.5804C3.82941 1.47474 3.84813 1.36943 3.8885 1.27169C3.92887 1.17396 3.98993 1.08613 4.06747 1.01424C4.14502 0.942346 4.23722 0.888103 4.33772 0.855239H4.41039C5.47805 0.558978 6.55688 0.279487 7.64131 -3.8445e-06C7.75012 -0.0304333 7.86452 -0.0350719 7.97544 -0.0135513C8.08635 0.00796932 8.19072 0.0550563 8.28025 0.12397C8.36979 0.192883 8.44202 0.281724 8.49121 0.383437C8.5404 0.485149 8.5652 0.596931 8.56363 0.709904C8.65865 2.03469 8.74809 3.35389 8.84312 4.67868C8.84312 5.00848 9.04435 5.18735 9.30148 5.17058C9.55862 5.15381 9.70954 4.94699 9.68718 4.6116L9.43564 1.11796C9.43564 1.01175 9.43564 0.905547 9.43564 0.760212C9.64246 0.81052 9.83252 0.844059 9.99462 0.905547C11.1977 1.24395 12.2946 1.88351 13.1817 2.76379C14.0688 3.64406 14.7169 4.73599 15.0646 5.93639C15.1317 6.1488 15.2043 6.23265 15.4391 6.24383C15.6707 6.26215 15.8891 6.35921 16.0579 6.51888C16.2268 6.67854 16.3358 6.89118 16.367 7.12143C16.3945 7.34292 16.3515 7.56744 16.2441 7.76311C16.1368 7.95877 15.9705 8.11565 15.7689 8.21144C15.0143 8.52448 14.2652 8.85987 13.4883 9.10582C11.7331 9.6648 9.97226 10.2238 8.1947 10.6766C6.84196 11.0287 5.45569 11.2858 4.08059 11.5318C3.1415 11.6939 2.18564 11.7889 1.23537 11.8784C1.08404 11.9064 0.928391 11.9006 0.779549 11.8615C0.630707 11.8223 0.492341 11.7508 0.374332 11.652C0.256323 11.5532 0.161583 11.4296 0.0968779 11.29C0.0321727 11.1503 -0.000901022 10.9981 1.86675e-05 10.8443C0.00190024 10.6703 0.050663 10.5001 0.141169 10.3516C0.231675 10.203 0.360573 10.0816 0.514282 10.0002C0.54704 9.98672 0.576807 9.96691 0.601868 9.94188C0.626929 9.91686 0.646788 9.88712 0.660299 9.85438C0.67381 9.82164 0.680706 9.78655 0.680589 9.75114C0.680472 9.71572 0.673345 9.68068 0.659618 9.64803C0.371517 8.36888 0.431082 7.03593 0.832128 5.78757C1.23317 4.53922 1.96108 3.42098 2.94027 2.54896C3.01293 2.48188 3.09119 2.42598 3.18063 2.34213Z" fill="#F9B102"/>
<path d="M20.6198 25.6575L20.5639 25.6016C20.5185 25.5467 20.47 25.4944 20.4186 25.4451C20.2565 25.2997 20.0832 25.1544 19.8931 25.0147C19.3186 24.5652 18.6985 24.1773 18.0429 23.8576C19.0235 22.9327 19.8118 21.8233 20.3627 20.5931C21.2023 18.6999 21.4403 16.5946 21.0446 14.5617C20.5987 12.3478 19.4166 10.3501 17.6907 8.89361C17.5701 8.77333 17.4093 8.70172 17.2392 8.69244C17.069 8.68316 16.9015 8.73686 16.7684 8.8433C15.7027 9.57291 14.552 10.1698 13.3418 10.6209C13.3141 10.6322 13.2903 10.6515 13.2736 10.6764C13.2569 10.7013 13.2479 10.7306 13.2479 10.7606C13.2479 10.7906 13.2569 10.8199 13.2736 10.8448C13.2903 10.8697 13.3141 10.889 13.3418 10.9004C14.0568 11.267 14.693 11.7703 15.2144 12.3817C16.2577 13.3948 16.8872 14.7595 16.9808 16.2107C17.0458 17.0334 16.9294 17.8603 16.6396 18.6331C16.3498 19.4058 15.8938 20.1055 15.3039 20.6825C14.7649 21.2258 14.1216 21.6545 13.4126 21.9427C12.7037 22.2308 11.9438 22.3726 11.1786 22.3595C10.3527 22.3706 9.53433 22.2007 8.78108 21.8618C8.02784 21.5228 7.35796 21.023 6.81853 20.3975C5.77878 19.1903 5.25838 17.6211 5.37076 16.0318C5.40274 14.8975 5.78334 13.8006 6.46078 12.8903C6.47947 12.8674 6.49104 12.8396 6.49404 12.8102C6.49704 12.7808 6.49134 12.7511 6.47765 12.7249C6.46395 12.6987 6.44287 12.6771 6.41702 12.6628C6.39117 12.6485 6.36168 12.6421 6.33221 12.6444C5.15276 12.7394 5.16394 12.7562 2.72119 13.0468C2.4156 13.0745 2.12553 13.1939 1.88908 13.3894C1.65264 13.585 1.48088 13.8475 1.3964 14.1425C0.965697 15.8944 1.01397 17.7299 1.53617 19.4568C2.05837 21.1837 3.03528 22.7384 4.36459 23.9582C6.20347 25.6949 8.64961 26.6421 11.1786 26.5966C12.838 26.5615 14.4849 26.8917 16.0026 27.5636C16.408 27.7502 16.7937 27.9768 17.1541 28.24C17.2594 28.3054 17.3586 28.3802 17.4504 28.4636L17.5342 28.5307C17.7279 28.7511 17.9672 28.9267 18.2355 29.0455C18.5039 29.1642 18.7948 29.2231 19.0882 29.2182C19.6228 29.2237 20.1391 29.0236 20.5304 28.6592C20.9321 28.2833 21.1724 27.7662 21.2005 27.2168C21.2287 26.6673 21.0425 26.1284 20.6813 25.7134L20.6198 25.6575Z" fill="#313D65"/>
<path d="M47.4246 7.17151L46.7482 7.22182C46.5774 7.23672 46.4116 7.28719 46.2614 7.36997C46.1112 7.45276 45.98 7.56604 45.8762 7.70254H44.8533C44.506 7.69928 44.1709 7.83087 43.9186 8.06961C43.6663 8.30835 43.5165 8.63563 43.5006 8.98261C43.4953 9.15985 43.5257 9.33634 43.59 9.50161C43.6542 9.66689 43.7509 9.81759 43.8745 9.94478C43.998 10.072 44.1459 10.1731 44.3092 10.2421C44.4725 10.3111 44.648 10.3466 44.8254 10.3465H45.9433C46.0459 10.4671 46.1713 10.5662 46.3123 10.6381C46.4534 10.7101 46.6072 10.7535 46.765 10.7658L47.4414 10.8161C47.4951 10.8199 47.549 10.8126 47.5997 10.7947C47.6505 10.7768 47.697 10.7486 47.7363 10.7118C47.7757 10.6751 47.807 10.6307 47.8284 10.5813C47.8498 10.5319 47.8608 10.4786 47.8606 10.4248V7.5628C47.861 7.50742 47.8496 7.4526 47.8272 7.40196C47.8048 7.35132 47.7719 7.30601 47.7307 7.26902C47.6895 7.23203 47.6409 7.20422 47.5881 7.18741C47.5354 7.1706 47.4796 7.16518 47.4246 7.17151Z" fill="#F9B102"/>
<path d="M71.5765 26.4955C71.0777 26.2425 70.6984 25.8035 70.5206 25.2732C70.3428 24.743 70.3808 24.164 70.6262 23.6615L78.5693 7.77522C78.7516 7.41845 79.0305 7.12014 79.3743 6.91439C79.712 6.71192 80.0984 6.60498 80.4922 6.60498C80.886 6.60498 81.2724 6.71192 81.6102 6.91439C81.9436 7.12417 82.2126 7.4221 82.3872 7.77522L90.3191 23.6615C90.4503 23.9066 90.529 24.1763 90.5502 24.4535C90.5714 24.7307 90.5345 25.0092 90.4421 25.2714C90.3003 25.6922 90.0308 26.0584 89.6711 26.3189C89.3114 26.5794 88.8795 26.7212 88.4354 26.7247C88.0407 26.7277 87.6532 26.6192 87.3174 26.4117C86.9736 26.2045 86.6977 25.9014 86.5236 25.5397L85.115 22.7448H75.8136L74.4161 25.5397C74.1641 26.0409 73.7245 26.4224 73.1928 26.6014C72.6611 26.7804 72.0803 26.7423 71.5765 26.4955ZM77.9377 18.5133H82.9685L80.4419 13.4824L77.9377 18.5133Z" fill="#313D65"/>
<path d="M122.86 6.66313C122.787 6.60617 122.699 6.5711 122.606 6.56196C122.514 6.55282 122.421 6.57 122.338 6.6115C122.255 6.653 122.185 6.71714 122.137 6.7965C122.089 6.87587 122.065 6.96722 122.066 7.06001V8.04941C122.06 8.3115 121.954 8.56129 121.768 8.74666C121.583 8.93204 121.333 9.03869 121.071 9.04439C120.808 9.0444 120.556 8.94034 120.37 8.75495C120.183 8.56956 120.078 8.31791 120.076 8.055V7.06001C120.078 6.96722 120.053 6.87587 120.005 6.7965C119.957 6.71714 119.887 6.653 119.804 6.6115C119.721 6.57 119.628 6.55282 119.536 6.56196C119.444 6.5711 119.356 6.60617 119.282 6.66313C118.888 6.95864 118.573 7.34732 118.366 7.79436C118.159 8.24141 118.066 8.73286 118.095 9.22471C118.124 9.71656 118.275 10.1935 118.534 10.6127C118.793 11.0319 119.152 11.3804 119.579 11.6269V22.0128C119.152 22.2593 118.793 22.6078 118.534 23.027C118.275 23.4462 118.124 23.9231 118.095 24.415C118.066 24.9068 118.159 25.3983 118.366 25.8453C118.573 26.2924 118.888 26.681 119.282 26.9765C119.356 27.0314 119.444 27.0646 119.536 27.0725C119.628 27.0804 119.72 27.0627 119.802 27.0213C119.885 26.9811 119.955 26.9183 120.003 26.8401C120.052 26.762 120.077 26.6716 120.076 26.5797V25.5847C120.083 25.3236 120.191 25.0752 120.376 24.891C120.561 24.7068 120.81 24.6009 121.071 24.5953C121.202 24.5953 121.331 24.621 121.452 24.671C121.573 24.721 121.682 24.7943 121.775 24.8867C121.867 24.9791 121.94 25.0888 121.99 25.2095C122.04 25.3302 122.066 25.4596 122.066 25.5903V26.5853C122.067 26.6772 122.093 26.7672 122.141 26.8452C122.19 26.9233 122.259 26.9863 122.341 27.0274C122.423 27.0686 122.515 27.0861 122.607 27.0781C122.698 27.0701 122.786 27.0369 122.86 26.9821C123.254 26.6862 123.568 26.2971 123.775 25.8498C123.982 25.4025 124.074 24.9109 124.045 24.419C124.015 23.9272 123.863 23.4504 123.604 23.0314C123.344 22.6125 122.985 22.2644 122.558 22.0184V11.6269C122.985 11.3804 123.344 11.0319 123.602 10.6127C123.861 10.1935 124.012 9.71656 124.042 9.22471C124.071 8.73286 123.978 8.24141 123.771 7.79436C123.563 7.34732 123.249 6.95864 122.854 6.66313H122.86Z" fill="#313D65"/>
</g>
<defs>
<clipPath id="clip0_7010_969">
<rect width="145" height="29.246" fill="white"/>
</clipPath>
</defs>
</svg>
